<mxfile host="Electron" modified="2023-12-20T14:03:36.207Z" agent="Mozilla/5.0 (Windows NT 10.0; Win64; x64) AppleWebKit/537.36 (KHTML, like Gecko) draw.io/22.1.2 Chrome/114.0.5735.289 Electron/25.9.4 Safari/537.36" etag="o4eiBMCjXZDqr2Hca78_" version="22.1.2" type="device">
  <diagram id="C5RBs43oDa-KdzZeNtuy" name="Page-1">
    <mxGraphModel dx="1036" dy="606" grid="1" gridSize="10" guides="1" tooltips="1" connect="1" arrows="1" fold="1" page="1" pageScale="1" pageWidth="1654" pageHeight="1169" math="0" shadow="0">
      <root>
        <mxCell id="WIyWlLk6GJQsqaUBKTNV-0" />
        <mxCell id="WIyWlLk6GJQsqaUBKTNV-1" parent="WIyWlLk6GJQsqaUBKTNV-0" />
        <mxCell id="3UvY8peuWpGWG1PwOuRS-8" value="PatientRecord" style="swimlane;fontStyle=1;align=center;verticalAlign=top;childLayout=stackLayout;horizontal=1;startSize=30;horizontalStack=0;resizeParent=1;resizeParentMax=0;resizeLast=0;collapsible=1;marginBottom=0;whiteSpace=wrap;html=1;" parent="WIyWlLk6GJQsqaUBKTNV-1" vertex="1">
          <mxGeometry x="840" y="386" width="190" height="260" as="geometry" />
        </mxCell>
        <mxCell id="3UvY8peuWpGWG1PwOuRS-9" value="- recordID: Integer&lt;br&gt;- patientID: Integer&lt;br&gt;- PatientName: String&lt;br&gt;- diagnosis: String&lt;br style=&quot;border-color: var(--border-color);&quot;&gt;- medications: String&lt;br style=&quot;border-color: var(--border-color);&quot;&gt;- surgeries: String&lt;br&gt;- patientHistory: String" style="text;strokeColor=none;fillColor=none;align=left;verticalAlign=top;spacingLeft=4;spacingRight=4;overflow=hidden;rotatable=0;points=[[0,0.5],[1,0.5]];portConstraint=eastwest;whiteSpace=wrap;html=1;" parent="3UvY8peuWpGWG1PwOuRS-8" vertex="1">
          <mxGeometry y="30" width="190" height="114" as="geometry" />
        </mxCell>
        <mxCell id="3UvY8peuWpGWG1PwOuRS-11" value="- treatmentPlan(patientID: String):&lt;br&gt;-getPatientRecords(patientID) : PatientRecord&lt;br&gt;-updatePatientRecords(patientID, updatedData) : void" style="text;strokeColor=none;fillColor=none;align=left;verticalAlign=top;spacingLeft=4;spacingRight=4;overflow=hidden;rotatable=0;points=[[0,0.5],[1,0.5]];portConstraint=eastwest;whiteSpace=wrap;html=1;" parent="3UvY8peuWpGWG1PwOuRS-8" vertex="1">
          <mxGeometry y="144" width="190" height="116" as="geometry" />
        </mxCell>
        <mxCell id="jVV_IdTcBbIL6dfqWp4S-0" value="" style="endArrow=none;html=1;rounded=0;entryX=0.997;entryY=-0.038;entryDx=0;entryDy=0;entryPerimeter=0;" parent="3UvY8peuWpGWG1PwOuRS-8" target="3UvY8peuWpGWG1PwOuRS-11" edge="1">
          <mxGeometry width="50" height="50" relative="1" as="geometry">
            <mxPoint x="-2" y="138.5" as="sourcePoint" />
            <mxPoint x="-322" y="47.5" as="targetPoint" />
          </mxGeometry>
        </mxCell>
        <mxCell id="3UvY8peuWpGWG1PwOuRS-12" value="DiagnosisResult" style="swimlane;fontStyle=1;align=center;verticalAlign=top;childLayout=stackLayout;horizontal=1;startSize=26;horizontalStack=0;resizeParent=1;resizeParentMax=0;resizeLast=0;collapsible=1;marginBottom=0;whiteSpace=wrap;html=1;" parent="WIyWlLk6GJQsqaUBKTNV-1" vertex="1">
          <mxGeometry x="427" y="870" width="230" height="100" as="geometry" />
        </mxCell>
        <mxCell id="3UvY8peuWpGWG1PwOuRS-13" value="- patientID: String&lt;br&gt;- diagnosis: String&lt;br&gt;- recommendations :String&lt;br&gt;- ifSurgery: bool" style="text;strokeColor=none;fillColor=none;align=left;verticalAlign=top;spacingLeft=4;spacingRight=4;overflow=hidden;rotatable=0;points=[[0,0.5],[1,0.5]];portConstraint=eastwest;whiteSpace=wrap;html=1;" parent="3UvY8peuWpGWG1PwOuRS-12" vertex="1">
          <mxGeometry y="26" width="230" height="74" as="geometry" />
        </mxCell>
        <mxCell id="3UvY8peuWpGWG1PwOuRS-16" value="PrescriptionManager" style="swimlane;fontStyle=1;align=center;verticalAlign=top;childLayout=stackLayout;horizontal=1;startSize=26;horizontalStack=0;resizeParent=1;resizeParentMax=0;resizeLast=0;collapsible=1;marginBottom=0;whiteSpace=wrap;html=1;" parent="WIyWlLk6GJQsqaUBKTNV-1" vertex="1">
          <mxGeometry x="430" y="140" width="180" height="120" as="geometry" />
        </mxCell>
        <mxCell id="3UvY8peuWpGWG1PwOuRS-17" value="- medicationID: Integer&lt;br&gt;- medicineName: String&lt;br&gt;- dosage:I nteger&lt;br&gt;- frequency: String&lt;br&gt;- instructions: String" style="text;strokeColor=none;fillColor=none;align=left;verticalAlign=top;spacingLeft=4;spacingRight=4;overflow=hidden;rotatable=0;points=[[0,0.5],[1,0.5]];portConstraint=eastwest;whiteSpace=wrap;html=1;" parent="3UvY8peuWpGWG1PwOuRS-16" vertex="1">
          <mxGeometry y="26" width="180" height="94" as="geometry" />
        </mxCell>
        <mxCell id="A8E7KaZRumW0pDUvmUCM-1" value="give" style="text;html=1;align=center;verticalAlign=middle;resizable=0;points=[];autosize=1;strokeColor=none;fillColor=none;" parent="WIyWlLk6GJQsqaUBKTNV-1" vertex="1">
          <mxGeometry x="530" y="800" width="50" height="30" as="geometry" />
        </mxCell>
        <mxCell id="A8E7KaZRumW0pDUvmUCM-2" value="SurgerySchedule" style="swimlane;fontStyle=1;align=center;verticalAlign=top;childLayout=stackLayout;horizontal=1;startSize=26;horizontalStack=0;resizeParent=1;resizeParentMax=0;resizeLast=0;collapsible=1;marginBottom=0;whiteSpace=wrap;html=1;" parent="WIyWlLk6GJQsqaUBKTNV-1" vertex="1">
          <mxGeometry x="60" y="518" width="180" height="120" as="geometry" />
        </mxCell>
        <mxCell id="A8E7KaZRumW0pDUvmUCM-3" value="- surgeryID: Integer -&amp;nbsp;patientID: Integer&lt;br&gt;- surgeonID: Integer&lt;br&gt;- date: String&lt;br&gt;- time: String" style="text;strokeColor=none;fillColor=none;align=left;verticalAlign=top;spacingLeft=4;spacingRight=4;overflow=hidden;rotatable=0;points=[[0,0.5],[1,0.5]];portConstraint=eastwest;whiteSpace=wrap;html=1;" parent="A8E7KaZRumW0pDUvmUCM-2" vertex="1">
          <mxGeometry y="26" width="180" height="94" as="geometry" />
        </mxCell>
        <mxCell id="A8E7KaZRumW0pDUvmUCM-9" value="make" style="text;html=1;align=center;verticalAlign=middle;resizable=0;points=[];autosize=1;strokeColor=none;fillColor=none;" parent="WIyWlLk6GJQsqaUBKTNV-1" vertex="1">
          <mxGeometry x="285" y="569.5" width="50" height="30" as="geometry" />
        </mxCell>
        <mxCell id="jVV_IdTcBbIL6dfqWp4S-6" value="&lt;b style=&quot;border-color: var(--border-color);&quot;&gt;Doctor&lt;/b&gt;" style="swimlane;fontStyle=1;align=center;verticalAlign=top;childLayout=stackLayout;horizontal=1;startSize=26;horizontalStack=0;resizeParent=1;resizeParentMax=0;resizeLast=0;collapsible=1;marginBottom=0;whiteSpace=wrap;html=1;" parent="WIyWlLk6GJQsqaUBKTNV-1" vertex="1">
          <mxGeometry x="387" y="398" width="310" height="350" as="geometry" />
        </mxCell>
        <mxCell id="jVV_IdTcBbIL6dfqWp4S-7" value="&lt;p style=&quot;border-color: var(--border-color); margin: 4px 0px 0px;&quot;&gt;&lt;span style=&quot;background-color: initial;&quot;&gt;- doctorID: Integer&lt;/span&gt;&lt;/p&gt;&lt;p style=&quot;border-color: var(--border-color); margin: 4px 0px 0px;&quot;&gt;&lt;span style=&quot;background-color: initial;&quot;&gt;- doctorName: String&lt;/span&gt;&lt;/p&gt;&lt;p style=&quot;border-color: var(--border-color); margin: 4px 0px 0px;&quot;&gt;&lt;span style=&quot;background-color: initial;&quot;&gt;+ department: String&lt;/span&gt;&lt;/p&gt;+ professionalTitle:String&lt;p style=&quot;border-color: var(--border-color); margin: 0px 0px 0px 4px;&quot;&gt;&lt;br style=&quot;border-color: var(--border-color);&quot;&gt;&lt;/p&gt;&lt;p style=&quot;border-color: var(--border-color); margin: 0px 0px 0px 4px;&quot;&gt;&lt;br&gt;&lt;/p&gt;" style="text;strokeColor=none;fillColor=none;align=left;verticalAlign=top;spacingLeft=4;spacingRight=4;overflow=hidden;rotatable=0;points=[[0,0.5],[1,0.5]];portConstraint=eastwest;whiteSpace=wrap;html=1;" parent="jVV_IdTcBbIL6dfqWp4S-6" vertex="1">
          <mxGeometry y="26" width="310" height="94" as="geometry" />
        </mxCell>
        <mxCell id="jVV_IdTcBbIL6dfqWp4S-8" value="" style="line;strokeWidth=1;fillColor=none;align=left;verticalAlign=middle;spacingTop=-1;spacingLeft=3;spacingRight=3;rotatable=0;labelPosition=right;points=[];portConstraint=eastwest;strokeColor=inherit;" parent="jVV_IdTcBbIL6dfqWp4S-6" vertex="1">
          <mxGeometry y="120" width="310" height="8" as="geometry" />
        </mxCell>
        <mxCell id="jVV_IdTcBbIL6dfqWp4S-9" value="&lt;p style=&quot;border-color: var(--border-color); margin: 0px 0px 0px 4px;&quot;&gt;+&amp;nbsp;viewPatientInfo():&lt;/p&gt;&lt;p style=&quot;border-color: var(--border-color); margin: 0px 0px 0px 4px;&quot;&gt;+ updatePatientInfo():&amp;nbsp; &amp;nbsp;&lt;/p&gt;&lt;p style=&quot;border-color: var(--border-color); margin: 0px 0px 0px 4px;&quot;&gt;+&amp;nbsp;diagnoseCondition(patientID: string, symptoms: string[]) : DiagnosisResult&amp;nbsp;&lt;/p&gt;&amp;nbsp;- prescribeTreatment(patientID: string, medications: Medication[]) : Prescription&lt;br&gt;&amp;nbsp;- diagnosis()&lt;br style=&quot;border-color: var(--border-color);&quot;&gt;&amp;nbsp;- scheduleSurgery()&lt;br&gt;&amp;nbsp;+ orderTest()&lt;br&gt;&lt;p style=&quot;border-color: var(--border-color); margin: 0px 0px 0px 4px;&quot;&gt;&lt;span style=&quot;background-color: initial;&quot;&gt;- prescribe(patientID: String;medicationID: Integer)&lt;/span&gt;&lt;/p&gt;&amp;nbsp; +register(String doctorID, String doctorName,&lt;br style=&quot;border-color: var(--border-color); text-align: center;&quot;&gt;&lt;span style=&quot;text-align: center;&quot;&gt;String password,StringprofessionalTitle&lt;/span&gt;&lt;br style=&quot;border-color: var(--border-color); text-align: center;&quot;&gt;):Boolean&amp;nbsp;&lt;br&gt;&amp;nbsp;&amp;nbsp;&lt;span style=&quot;text-align: center;&quot;&gt;+login(String doctorName, String password): Boolean&lt;br&gt;&lt;/span&gt;&#x9;&lt;span style=&quot;border-color: var(--border-color);&quot;&gt;&lt;span style=&quot;white-space: pre;&quot;&gt;&amp;nbsp;&amp;nbsp;&lt;/span&gt;&lt;/span&gt;+logout():void&amp;nbsp;&lt;span style=&quot;text-align: center;&quot;&gt;&lt;br&gt;&lt;/span&gt;" style="text;strokeColor=none;fillColor=none;align=left;verticalAlign=top;spacingLeft=4;spacingRight=4;overflow=hidden;rotatable=0;points=[[0,0.5],[1,0.5]];portConstraint=eastwest;whiteSpace=wrap;html=1;" parent="jVV_IdTcBbIL6dfqWp4S-6" vertex="1">
          <mxGeometry y="128" width="310" height="222" as="geometry" />
        </mxCell>
        <mxCell id="jVV_IdTcBbIL6dfqWp4S-13" value="Authentication" style="swimlane;fontStyle=1;align=center;verticalAlign=top;childLayout=stackLayout;horizontal=1;startSize=26;horizontalStack=0;resizeParent=1;resizeParentMax=0;resizeLast=0;collapsible=1;marginBottom=0;whiteSpace=wrap;html=1;" parent="WIyWlLk6GJQsqaUBKTNV-1" vertex="1">
          <mxGeometry x="90" y="340" width="190" height="160" as="geometry" />
        </mxCell>
        <mxCell id="jVV_IdTcBbIL6dfqWp4S-14" value="- doctorID: Integer&lt;br&gt;- doctorPassword: Interger" style="text;strokeColor=none;fillColor=none;align=left;verticalAlign=top;spacingLeft=4;spacingRight=4;overflow=hidden;rotatable=0;points=[[0,0.5],[1,0.5]];portConstraint=eastwest;whiteSpace=wrap;html=1;" parent="jVV_IdTcBbIL6dfqWp4S-13" vertex="1">
          <mxGeometry y="26" width="190" height="54" as="geometry" />
        </mxCell>
        <mxCell id="jVV_IdTcBbIL6dfqWp4S-15" value="" style="line;strokeWidth=1;fillColor=none;align=left;verticalAlign=middle;spacingTop=-1;spacingLeft=3;spacingRight=3;rotatable=0;labelPosition=right;points=[];portConstraint=eastwest;strokeColor=inherit;" parent="jVV_IdTcBbIL6dfqWp4S-13" vertex="1">
          <mxGeometry y="80" width="190" height="8" as="geometry" />
        </mxCell>
        <mxCell id="jVV_IdTcBbIL6dfqWp4S-16" value="+ authenticate(doctorID: Strring;doctorPassword: String)&lt;br&gt;" style="text;strokeColor=none;fillColor=none;align=left;verticalAlign=top;spacingLeft=4;spacingRight=4;overflow=hidden;rotatable=0;points=[[0,0.5],[1,0.5]];portConstraint=eastwest;whiteSpace=wrap;html=1;" parent="jVV_IdTcBbIL6dfqWp4S-13" vertex="1">
          <mxGeometry y="88" width="190" height="72" as="geometry" />
        </mxCell>
        <mxCell id="jVV_IdTcBbIL6dfqWp4S-18" value="authorize" style="text;html=1;align=center;verticalAlign=middle;resizable=0;points=[];autosize=1;strokeColor=none;fillColor=none;" parent="WIyWlLk6GJQsqaUBKTNV-1" vertex="1">
          <mxGeometry x="295" y="438" width="70" height="30" as="geometry" />
        </mxCell>
        <mxCell id="jVV_IdTcBbIL6dfqWp4S-19" value="AppointmentSystem" style="swimlane;fontStyle=1;align=center;verticalAlign=top;childLayout=stackLayout;horizontal=1;startSize=26;horizontalStack=0;resizeParent=1;resizeParentMax=0;resizeLast=0;collapsible=1;marginBottom=0;whiteSpace=wrap;html=1;" parent="WIyWlLk6GJQsqaUBKTNV-1" vertex="1">
          <mxGeometry x="697" y="200" width="220" height="170" as="geometry" />
        </mxCell>
        <mxCell id="jVV_IdTcBbIL6dfqWp4S-20" value="+ date: Integer&lt;br&gt;+ time: Integer" style="text;strokeColor=none;fillColor=none;align=left;verticalAlign=top;spacingLeft=4;spacingRight=4;overflow=hidden;rotatable=0;points=[[0,0.5],[1,0.5]];portConstraint=eastwest;whiteSpace=wrap;html=1;" parent="jVV_IdTcBbIL6dfqWp4S-19" vertex="1">
          <mxGeometry y="26" width="220" height="64" as="geometry" />
        </mxCell>
        <mxCell id="jVV_IdTcBbIL6dfqWp4S-21" value="" style="line;strokeWidth=1;fillColor=none;align=left;verticalAlign=middle;spacingTop=-1;spacingLeft=3;spacingRight=3;rotatable=0;labelPosition=right;points=[];portConstraint=eastwest;strokeColor=inherit;" parent="jVV_IdTcBbIL6dfqWp4S-19" vertex="1">
          <mxGeometry y="90" width="220" height="8" as="geometry" />
        </mxCell>
        <mxCell id="jVV_IdTcBbIL6dfqWp4S-22" value="+getDoctorAppointments(doctorID) : List&amp;lt;Appointment&amp;gt;&lt;br&gt;+manageAppointment(appointmentID, action) : void" style="text;strokeColor=none;fillColor=none;align=left;verticalAlign=top;spacingLeft=4;spacingRight=4;overflow=hidden;rotatable=0;points=[[0,0.5],[1,0.5]];portConstraint=eastwest;whiteSpace=wrap;html=1;" parent="jVV_IdTcBbIL6dfqWp4S-19" vertex="1">
          <mxGeometry y="98" width="220" height="72" as="geometry" />
        </mxCell>
        <mxCell id="jVV_IdTcBbIL6dfqWp4S-24" value="CommunicationRole" style="swimlane;fontStyle=1;align=center;verticalAlign=top;childLayout=stackLayout;horizontal=1;startSize=26;horizontalStack=0;resizeParent=1;resizeParentMax=0;resizeLast=0;collapsible=1;marginBottom=0;whiteSpace=wrap;html=1;" parent="WIyWlLk6GJQsqaUBKTNV-1" vertex="1">
          <mxGeometry x="25" y="780" width="310" height="198" as="geometry" />
        </mxCell>
        <mxCell id="jVV_IdTcBbIL6dfqWp4S-25" value="- patientInfo: String&lt;br&gt;- patientID: Integer&lt;br&gt;- doctorID: Integer" style="text;strokeColor=none;fillColor=none;align=left;verticalAlign=top;spacingLeft=4;spacingRight=4;overflow=hidden;rotatable=0;points=[[0,0.5],[1,0.5]];portConstraint=eastwest;whiteSpace=wrap;html=1;" parent="jVV_IdTcBbIL6dfqWp4S-24" vertex="1">
          <mxGeometry y="26" width="310" height="54" as="geometry" />
        </mxCell>
        <mxCell id="jVV_IdTcBbIL6dfqWp4S-26" value="" style="line;strokeWidth=1;fillColor=none;align=left;verticalAlign=middle;spacingTop=-1;spacingLeft=3;spacingRight=3;rotatable=0;labelPosition=right;points=[];portConstraint=eastwest;strokeColor=inherit;" parent="jVV_IdTcBbIL6dfqWp4S-24" vertex="1">
          <mxGeometry y="80" width="310" height="8" as="geometry" />
        </mxCell>
        <mxCell id="jVV_IdTcBbIL6dfqWp4S-27" value="+ communicate(patientName: String;doctorName: String)&lt;br&gt;+ viewMessages(patientName: String;doctorName: String)&lt;br&gt;+ sendMessages(patientName: String;doctorName: String)" style="text;strokeColor=none;fillColor=none;align=left;verticalAlign=top;spacingLeft=4;spacingRight=4;overflow=hidden;rotatable=0;points=[[0,0.5],[1,0.5]];portConstraint=eastwest;whiteSpace=wrap;html=1;" parent="jVV_IdTcBbIL6dfqWp4S-24" vertex="1">
          <mxGeometry y="88" width="310" height="110" as="geometry" />
        </mxCell>
        <mxCell id="jVV_IdTcBbIL6dfqWp4S-28" value="manage" style="text;html=1;align=center;verticalAlign=middle;resizable=0;points=[];autosize=1;strokeColor=none;fillColor=none;" parent="WIyWlLk6GJQsqaUBKTNV-1" vertex="1">
          <mxGeometry x="627" y="320" width="70" height="30" as="geometry" />
        </mxCell>
        <mxCell id="jVV_IdTcBbIL6dfqWp4S-30" value="TestDiagnostics" style="swimlane;fontStyle=1;align=center;verticalAlign=top;childLayout=stackLayout;horizontal=1;startSize=26;horizontalStack=0;resizeParent=1;resizeParentMax=0;resizeLast=0;collapsible=1;marginBottom=0;whiteSpace=wrap;html=1;" parent="WIyWlLk6GJQsqaUBKTNV-1" vertex="1">
          <mxGeometry x="780" y="690" width="210" height="230" as="geometry" />
        </mxCell>
        <mxCell id="jVV_IdTcBbIL6dfqWp4S-31" value="+ doctorID: Integer&lt;br&gt;+ doctorPassword: String&lt;br&gt;+ testID:Integer" style="text;strokeColor=none;fillColor=none;align=left;verticalAlign=top;spacingLeft=4;spacingRight=4;overflow=hidden;rotatable=0;points=[[0,0.5],[1,0.5]];portConstraint=eastwest;whiteSpace=wrap;html=1;" parent="jVV_IdTcBbIL6dfqWp4S-30" vertex="1">
          <mxGeometry y="26" width="210" height="54" as="geometry" />
        </mxCell>
        <mxCell id="jVV_IdTcBbIL6dfqWp4S-32" value="" style="line;strokeWidth=1;fillColor=none;align=left;verticalAlign=middle;spacingTop=-1;spacingLeft=3;spacingRight=3;rotatable=0;labelPosition=right;points=[];portConstraint=eastwest;strokeColor=inherit;" parent="jVV_IdTcBbIL6dfqWp4S-30" vertex="1">
          <mxGeometry y="80" width="210" height="8" as="geometry" />
        </mxCell>
        <mxCell id="jVV_IdTcBbIL6dfqWp4S-33" value="- orderTest(testID:String;doctorID: String)&lt;br&gt;+&amp;nbsp;reviewTests(estID:String)&lt;br&gt;+&amp;nbsp;generatePrescription()&lt;br&gt;+&amp;nbsp;viewPrescription()&lt;br&gt;+ saveInPatientRecord()&lt;br&gt;-receiveTestResults(testOrderID) : TestResults" style="text;strokeColor=none;fillColor=none;align=left;verticalAlign=top;spacingLeft=4;spacingRight=4;overflow=hidden;rotatable=0;points=[[0,0.5],[1,0.5]];portConstraint=eastwest;whiteSpace=wrap;html=1;" parent="jVV_IdTcBbIL6dfqWp4S-30" vertex="1">
          <mxGeometry y="88" width="210" height="142" as="geometry" />
        </mxCell>
        <mxCell id="jVV_IdTcBbIL6dfqWp4S-40" value="test" style="text;html=1;align=center;verticalAlign=middle;resizable=0;points=[];autosize=1;strokeColor=none;fillColor=none;" parent="WIyWlLk6GJQsqaUBKTNV-1" vertex="1">
          <mxGeometry x="730" y="638" width="40" height="30" as="geometry" />
        </mxCell>
        <mxCell id="jVV_IdTcBbIL6dfqWp4S-41" value="communicate" style="text;html=1;align=center;verticalAlign=middle;resizable=0;points=[];autosize=1;strokeColor=none;fillColor=none;" parent="WIyWlLk6GJQsqaUBKTNV-1" vertex="1">
          <mxGeometry x="270" y="700" width="90" height="30" as="geometry" />
        </mxCell>
        <mxCell id="jVV_IdTcBbIL6dfqWp4S-42" value="give" style="text;html=1;align=center;verticalAlign=middle;resizable=0;points=[];autosize=1;strokeColor=none;fillColor=none;" parent="WIyWlLk6GJQsqaUBKTNV-1" vertex="1">
          <mxGeometry x="500" y="350" width="50" height="30" as="geometry" />
        </mxCell>
        <mxCell id="o_qBsPnsUiDT-PDy5UxR-2" value="" style="rounded=0;whiteSpace=wrap;html=1;" parent="WIyWlLk6GJQsqaUBKTNV-1" vertex="1">
          <mxGeometry x="60" y="638" width="180" height="132" as="geometry" />
        </mxCell>
        <mxCell id="o_qBsPnsUiDT-PDy5UxR-3" value="+arrangeSchedule(doctorName: String;&lt;br style=&quot;border-color: var(--border-color); text-align: center;&quot;&gt;&lt;span style=&quot;text-align: center;&quot;&gt;patientID: String&#39;patientName: String&lt;/span&gt;&lt;br&gt;)&lt;br&gt;+ judgeIfSurgery(diagnosis: String)" style="text;html=1;strokeColor=none;fillColor=none;align=left;verticalAlign=middle;whiteSpace=wrap;rounded=0;" parent="WIyWlLk6GJQsqaUBKTNV-1" vertex="1">
          <mxGeometry x="60" y="646" width="160" height="94" as="geometry" />
        </mxCell>
        <mxCell id="GJoDdu2L_dYP0V4YE0ZQ-0" value="" style="endArrow=none;html=1;rounded=0;exitX=0.443;exitY=0.014;exitDx=0;exitDy=0;exitPerimeter=0;" parent="WIyWlLk6GJQsqaUBKTNV-1" source="3UvY8peuWpGWG1PwOuRS-12" edge="1">
          <mxGeometry width="50" height="50" relative="1" as="geometry">
            <mxPoint x="480" y="740" as="sourcePoint" />
            <mxPoint x="530" y="750" as="targetPoint" />
          </mxGeometry>
        </mxCell>
        <mxCell id="GJoDdu2L_dYP0V4YE0ZQ-1" value="" style="endArrow=none;html=1;rounded=0;exitX=0.75;exitY=0;exitDx=0;exitDy=0;entryX=0.003;entryY=0.688;entryDx=0;entryDy=0;entryPerimeter=0;" parent="WIyWlLk6GJQsqaUBKTNV-1" source="jVV_IdTcBbIL6dfqWp4S-24" target="jVV_IdTcBbIL6dfqWp4S-9" edge="1">
          <mxGeometry width="50" height="50" relative="1" as="geometry">
            <mxPoint x="250" y="640" as="sourcePoint" />
            <mxPoint x="380" y="640" as="targetPoint" />
          </mxGeometry>
        </mxCell>
        <mxCell id="GJoDdu2L_dYP0V4YE0ZQ-2" value="" style="endArrow=none;html=1;rounded=0;exitX=1.005;exitY=0.67;exitDx=0;exitDy=0;exitPerimeter=0;entryX=-0.005;entryY=0.377;entryDx=0;entryDy=0;entryPerimeter=0;" parent="WIyWlLk6GJQsqaUBKTNV-1" source="A8E7KaZRumW0pDUvmUCM-3" target="jVV_IdTcBbIL6dfqWp4S-9" edge="1">
          <mxGeometry width="50" height="50" relative="1" as="geometry">
            <mxPoint x="330" y="640" as="sourcePoint" />
            <mxPoint x="380" y="590" as="targetPoint" />
          </mxGeometry>
        </mxCell>
        <mxCell id="GJoDdu2L_dYP0V4YE0ZQ-4" value="" style="endArrow=none;html=1;rounded=0;exitX=1.017;exitY=0.631;exitDx=0;exitDy=0;exitPerimeter=0;entryX=-0.01;entryY=0.389;entryDx=0;entryDy=0;entryPerimeter=0;" parent="WIyWlLk6GJQsqaUBKTNV-1" source="jVV_IdTcBbIL6dfqWp4S-16" target="jVV_IdTcBbIL6dfqWp4S-7" edge="1">
          <mxGeometry width="50" height="50" relative="1" as="geometry">
            <mxPoint x="310" y="530" as="sourcePoint" />
            <mxPoint x="360" y="480" as="targetPoint" />
          </mxGeometry>
        </mxCell>
        <mxCell id="GJoDdu2L_dYP0V4YE0ZQ-5" value="" style="endArrow=none;html=1;rounded=0;exitX=0.526;exitY=0.007;exitDx=0;exitDy=0;exitPerimeter=0;entryX=0.555;entryY=1.036;entryDx=0;entryDy=0;entryPerimeter=0;" parent="WIyWlLk6GJQsqaUBKTNV-1" source="jVV_IdTcBbIL6dfqWp4S-6" target="3UvY8peuWpGWG1PwOuRS-17" edge="1">
          <mxGeometry width="50" height="50" relative="1" as="geometry">
            <mxPoint x="500" y="400" as="sourcePoint" />
            <mxPoint x="550" y="350" as="targetPoint" />
          </mxGeometry>
        </mxCell>
        <mxCell id="GJoDdu2L_dYP0V4YE0ZQ-6" value="" style="endArrow=none;html=1;rounded=0;entryX=-0.022;entryY=-0.061;entryDx=0;entryDy=0;entryPerimeter=0;" parent="WIyWlLk6GJQsqaUBKTNV-1" target="jVV_IdTcBbIL6dfqWp4S-22" edge="1">
          <mxGeometry width="50" height="50" relative="1" as="geometry">
            <mxPoint x="640" y="400" as="sourcePoint" />
            <mxPoint x="640" y="290" as="targetPoint" />
            <Array as="points">
              <mxPoint x="640" y="294" />
            </Array>
          </mxGeometry>
        </mxCell>
        <mxCell id="GJoDdu2L_dYP0V4YE0ZQ-7" value="" style="endArrow=none;html=1;rounded=0;entryX=0;entryY=0.5;entryDx=0;entryDy=0;" parent="WIyWlLk6GJQsqaUBKTNV-1" target="3UvY8peuWpGWG1PwOuRS-9" edge="1">
          <mxGeometry width="50" height="50" relative="1" as="geometry">
            <mxPoint x="700" y="540" as="sourcePoint" />
            <mxPoint x="750" y="490" as="targetPoint" />
          </mxGeometry>
        </mxCell>
        <mxCell id="GJoDdu2L_dYP0V4YE0ZQ-8" value="" style="endArrow=none;html=1;rounded=0;entryX=0.465;entryY=-0.007;entryDx=0;entryDy=0;entryPerimeter=0;" parent="WIyWlLk6GJQsqaUBKTNV-1" target="jVV_IdTcBbIL6dfqWp4S-30" edge="1">
          <mxGeometry width="50" height="50" relative="1" as="geometry">
            <mxPoint x="700" y="670" as="sourcePoint" />
            <mxPoint x="750" y="620" as="targetPoint" />
            <Array as="points">
              <mxPoint x="878" y="670" />
            </Array>
          </mxGeometry>
        </mxCell>
        <mxCell id="GJoDdu2L_dYP0V4YE0ZQ-9" value="-generatePrescription(doctorID, patientID, medication) : Prescription" style="rounded=0;whiteSpace=wrap;html=1;fillColor=default;align=left;" parent="WIyWlLk6GJQsqaUBKTNV-1" vertex="1">
          <mxGeometry x="430" y="260" width="180" height="60" as="geometry" />
        </mxCell>
      </root>
    </mxGraphModel>
  </diagram>
</mxfile>
